<?xml version="1.0"?>
<svg xmlns="http://www.w3.org/2000/svg" xmlns:xlink="http://www.w3.org/1999/xlink" xmlns:svgjs="http://svgjs.com/svgjs" version="1.1" width="512" height="512" x="0" y="0" viewBox="0 0 64 64" style="enable-background:new 0 0 512 512" xml:space="preserve" class=""><g><g xmlns="http://www.w3.org/2000/svg" id="facemask-virus-covid19-corona-mask"><path d="m58.514 6.9-1.414-1.414a7.508 7.508 0 0 0 -10.608 0l-6.362 6.362-2.72-2.718a1 1 0 0 0 -.7-.29.978.978 0 0 0 -.57.17l-8.43 5.73a49.083 49.083 0 0 0 -12.97 12.97l-5.73 8.43a1 1 0 0 0 .12 1.27l2.722 2.722-6.366 6.368a7.509 7.509 0 0 0 0 10.607l1.41 1.41a7.508 7.508 0 0 0 10.608 0l6.362-6.362 2.724 2.715a1 1 0 0 0 1.27.12l8.43-5.73a49.083 49.083 0 0 0 12.97-12.97l5.73-8.43a1 1 0 0 0 -.12-1.27l-2.722-2.722 6.366-6.368a7.511 7.511 0 0 0 0-10.6zm-18.736 11.665a1 1 0 1 1 1.414 1.414l-21.213 21.213a1 1 0 1 1 -1.414-1.414zm-25.456 16.971 21.213-21.214a1 1 0 0 1 1.414 1.414l-21.213 21.214a1 1 0 0 1 -1.414-1.414zm1.765 21.57a5.512 5.512 0 0 1 -7.774 0l-1.419-1.419a5.5 5.5 0 0 1 0-7.773l6.37-6.37 4.6 4.6 4.24 4.24v.01l.351.351zm8.135-11.671a1 1 0 0 1 -1.414-1.414l21.213-21.213a1 1 0 0 1 1.414 1.414zm25.456-16.971-21.213 21.214a1 1 0 1 1 -1.414-1.414l21.213-21.214a1 1 0 1 1 1.414 1.414zm1.058-6.008-8.836-8.836v-.01l-.351-.351 6.364-6.365a5.512 5.512 0 0 1 7.774 0l1.419 1.419a5.5 5.5 0 0 1 0 7.773z" fill="#2e838c" data-original="#000000" style="" class=""/></g></g></svg>
