<?xml version="1.0"?>
<svg xmlns="http://www.w3.org/2000/svg" xmlns:xlink="http://www.w3.org/1999/xlink" xmlns:svgjs="http://svgjs.com/svgjs" version="1.1" width="512" height="512" x="0" y="0" viewBox="0 0 512 512" style="enable-background:new 0 0 512 512" xml:space="preserve" class=""><g>
<g xmlns="http://www.w3.org/2000/svg">
	<path d="M376.152,157.683l-20.926,21.497c20.919,20.364,32.44,47.646,32.44,76.82s-11.521,56.457-32.44,76.82l20.926,21.497   c26.771-26.06,41.514-60.977,41.514-98.317S402.923,183.743,376.152,157.683z" fill="#2e838c" data-original="#000000" style="" class=""/>
	<path d="M335.341,200.941l-20.926,21.497c9.146,8.903,14.184,20.822,14.184,33.562s-5.037,24.658-14.184,33.562l20.926,21.497   c14.998-14.6,23.258-34.153,23.258-55.059S350.339,215.541,335.341,200.941z" fill="#2e838c" data-original="#000000" style="" class=""/>
	<path d="M214.603,0.012c-34.422,1.36-65.695,30.108-88.058,80.949C105.773,128.184,94.333,190.348,94.333,256   c0,66.438,11.677,129.134,32.88,176.537C150.133,483.78,182.066,512,217.129,512h85.457V341.716h-68.614   c-5.251-26.874-7.909-55.394-7.909-84.964c0-30.154,2.755-59.183,8.199-86.468h68.324V0h-87.39L214.603,0.012z" fill="#2e838c" data-original="#000000" style="" class=""/>
</g>















</g></svg>
